<svg width="128" height="128" viewBox="0 0 128 128" fill="none" xmlns="http://www.w3.org/2000/svg">
<g id="&#230;&#160;&#135;&#231;&#173;&#190;&#233;&#161;&#181;logo">
<g id="_&#229;&#155;&#190;&#229;&#177;&#130;_1" clip-path="url(#clip0_6561_143188)">
<path id="Vector" d="M1.62735 50.1307C-0.539034 52.2979 -0.539034 55.8182 1.62735 57.9956C3.79374 60.1627 7.31285 60.1627 9.48941 57.9956C11.6558 55.8284 11.6558 52.3081 9.48941 50.1307C7.32302 47.9636 3.80391 47.9636 1.62735 50.1307Z" fill="url(#paint0_linear_6561_143188)"/>
<path id="Vector_2" d="M51.9221 117.058C50.5592 118.422 50.5592 120.619 51.9221 121.983C53.285 123.346 55.4819 123.346 56.8448 121.983C58.2077 120.619 58.2077 118.422 56.8448 117.058C55.4819 115.695 53.285 115.695 51.9221 117.058Z" fill="url(#paint1_linear_6561_143188)"/>
<path id="Vector_3" d="M109.031 20.737C110.829 20.737 112.286 19.2793 112.286 17.4812C112.286 15.683 110.829 14.2253 109.031 14.2253C107.234 14.2253 105.777 15.683 105.777 17.4812C105.777 19.2793 107.234 20.737 109.031 20.737Z" fill="url(#paint2_linear_6561_143188)"/>
<g id="Group">
<path id="Vector_4" d="M57.1295 92.4156C57.9737 93.2601 59.123 93.7993 60.313 93.7281C60.3232 93.7281 60.3435 93.7281 60.3537 93.7281C60.4859 93.7281 60.6181 93.7179 60.7504 93.7281C61.9607 93.779 63.1303 93.2804 63.9949 92.4156L65.4595 90.9505C66.3138 90.0958 66.8223 88.9156 66.7715 87.7048C66.7715 87.5726 66.7715 87.4403 66.7715 87.308C66.7715 87.2978 66.7715 87.2775 66.7715 87.2673C66.8427 86.0769 66.3036 84.9272 65.4595 84.0827L63.9949 82.6176C63.1507 81.7731 62.0014 81.2339 60.8114 81.3051C60.6283 81.3153 60.4452 81.3255 60.2622 81.3153C59.0925 81.2949 57.9737 81.7935 57.1499 82.6176L55.6853 84.0827C54.8309 84.9374 54.3224 86.1176 54.3732 87.3284C54.3732 87.3996 54.3732 87.481 54.3732 87.5522C54.3732 87.5726 54.3732 87.5929 54.3732 87.6133C54.3732 87.6845 54.3732 87.7455 54.3732 87.8167C54.3224 88.997 54.8513 90.1263 55.6853 90.9505L57.1499 92.4156H57.1295Z" fill="url(#paint3_linear_6561_143188)"/>
<path id="Vector_5" d="M113.395 79.6163C115.602 74.173 116.832 68.2311 116.832 61.9942C116.832 36.141 95.8906 15.1918 70.0465 15.1918C63.822 15.1918 57.8822 16.423 52.4408 18.6308C41.2732 10.3692 29.7293 3.90842 20.9112 3.99998C15.9377 4.06103 12.0016 7.90696 11.5032 12.7907C10.6081 23.3009 16.8327 36.5886 25.0812 49.0727C23.9014 53.1831 23.2607 57.5174 23.2607 62.0043C23.2607 69.6352 25.1016 76.8285 28.3359 83.1875C28.3359 83.1875 28.3461 83.1875 28.3563 83.1875C28.5495 83.1671 28.7428 83.157 28.936 83.1671C28.9869 83.1671 29.0479 83.157 29.0987 83.1671C30.2887 83.2384 31.438 82.6991 32.2822 81.8546L33.7468 80.3895C34.591 79.545 35.13 78.3953 35.0588 77.2049C35.0588 77.1541 35.0588 77.093 35.0588 77.0421C35.0588 76.8488 35.0588 76.6555 35.0792 76.4622C35.0894 76.3503 35.1097 76.2282 35.13 76.1163C35.1606 75.9433 35.2012 75.7805 35.2623 75.6075C35.3029 75.4753 35.3538 75.3532 35.4047 75.2209C35.4657 75.0683 35.5369 74.9259 35.6182 74.7834C35.6894 74.6511 35.781 74.5291 35.8623 74.407C35.9539 74.2747 36.0556 74.1526 36.1675 74.0305C36.2183 73.9796 36.2488 73.9084 36.3099 73.8575C36.3709 73.7965 36.4522 73.7456 36.5234 73.6846C36.5946 73.6235 36.6455 73.5523 36.7167 73.5014C36.7879 73.4404 36.8693 73.3997 36.9404 73.3488C37.0116 73.298 37.0828 73.2471 37.154 73.2064C37.3371 73.0945 37.5202 73.0029 37.7134 72.9215C37.7846 72.891 37.8457 72.8605 37.9168 72.8299C38.1609 72.7485 38.405 72.6773 38.6593 72.6366C38.7814 72.6163 38.8932 72.6163 39.0153 72.6061C39.1679 72.5959 39.3103 72.5857 39.4628 72.5857C39.5849 72.5857 39.7069 72.5959 39.8391 72.6061C40.0019 72.6264 40.1646 72.6468 40.3172 72.6875C40.4189 72.7078 40.5206 72.7282 40.6121 72.7587C41.1003 72.9012 41.558 73.1148 41.975 73.42C42.0157 73.4506 42.0564 73.4913 42.0971 73.5218C42.1377 73.5523 42.1784 73.593 42.2191 73.6235C42.4429 73.8168 42.6463 74.0102 42.8192 74.234C42.8192 74.234 42.8395 74.2442 42.8395 74.2544C42.87 74.2849 42.8904 74.3256 42.9107 74.3663C43.0023 74.4985 43.0938 74.6308 43.1752 74.7631C43.2159 74.8241 43.2464 74.8953 43.2871 74.9666C43.3582 75.109 43.4193 75.2514 43.4803 75.4041C43.5006 75.4549 43.521 75.4956 43.5312 75.5465C43.6023 75.75 43.6532 75.9535 43.6939 76.1671C43.6939 76.2078 43.6939 76.2384 43.7041 76.2791C43.7346 76.452 43.7447 76.6148 43.7549 76.7878C43.7549 76.859 43.7549 76.9302 43.7549 77.0014C43.7549 77.0523 43.7549 77.093 43.7549 77.1439C43.7041 78.3546 44.2024 79.5247 45.0669 80.3895L46.5315 81.8546C47.3757 82.6991 48.525 83.1977 49.715 83.1671C49.7557 83.1671 49.8066 83.1671 49.8472 83.1671C49.8676 83.1671 49.8981 83.1671 49.9184 83.1671C49.9896 83.1671 50.0608 83.1671 50.132 83.1671C50.1422 83.1671 50.1625 83.1671 50.1727 83.1671C50.1829 83.1671 50.2032 83.1671 50.2134 83.1671C51.4034 83.2384 52.5527 82.6991 53.3969 81.8546L54.8615 80.3895C55.7056 79.545 56.2447 78.3953 56.1735 77.2049C56.1735 77.2049 56.1735 77.2049 56.1735 77.1948C56.1735 77.093 56.1735 76.9913 56.1735 76.8997C56.1735 76.7674 56.1837 76.6352 56.1938 76.5131C56.204 76.3706 56.2345 76.2282 56.265 76.0857C56.2854 75.9636 56.3159 75.8416 56.3464 75.7195C56.3667 75.6482 56.3973 75.577 56.4176 75.5058C56.4379 75.4448 56.4685 75.3837 56.4888 75.3125C56.5193 75.2413 56.5397 75.17 56.5702 75.109C56.621 74.9869 56.6922 74.875 56.7634 74.7631C56.7634 74.7631 56.7634 74.7631 56.7634 74.7529C56.8143 74.6715 56.8549 74.6003 56.9058 74.5189C56.9363 74.4782 56.9567 74.4375 56.9872 74.3968C57.0075 74.3663 57.0279 74.3459 57.0482 74.3256C57.1092 74.2442 57.1906 74.1526 57.2618 74.0712C57.3025 74.0305 57.3431 73.9796 57.3838 73.9389C57.4042 73.9186 57.4143 73.8982 57.4347 73.8779C57.4754 73.8372 57.5262 73.8067 57.5669 73.766C57.6076 73.7253 57.6483 73.6846 57.6991 73.6439C57.75 73.6032 57.7805 73.5523 57.8313 73.5116C57.9127 73.4506 58.0043 73.3997 58.0856 73.3387C58.1365 73.298 58.1975 73.2674 58.2484 73.2267C58.3907 73.1453 58.523 73.0741 58.6755 73.0029C58.7467 72.9724 58.8077 72.9419 58.8789 72.9113C58.9298 72.891 58.9807 72.8604 59.0315 72.8503C59.2756 72.7587 59.5299 72.6977 59.7943 72.657C59.9062 72.6366 60.0181 72.6366 60.1401 72.6264C60.2927 72.6163 60.4453 72.6061 60.5978 72.6061C60.6792 72.6061 60.7605 72.6061 60.8419 72.6061C62.0116 72.6264 63.1304 72.1279 63.9542 71.3038L65.4188 69.8386C66.2731 68.984 66.7817 67.8038 66.7308 66.593C66.6698 65.2093 67.2597 63.8052 68.5107 62.8692C70.0567 61.7195 72.2739 61.7602 73.7894 62.9506C75.8846 64.609 76.0168 67.6613 74.1861 69.4927C73.2707 70.4084 72.0502 70.8357 70.8399 70.7543C69.6499 70.6831 68.5006 71.2224 67.6564 72.0668L66.1918 73.532C65.3476 74.3764 64.8085 75.5262 64.8797 76.7166C64.8797 76.7166 64.8797 76.7166 64.8797 76.7267C64.8797 76.8488 64.8797 76.9607 64.8797 77.0727C64.8797 77.093 64.8797 77.1134 64.8797 77.1337C64.8289 78.3445 65.3273 79.5145 66.1918 80.3793L67.6564 81.8445C68.5107 82.6991 69.6905 83.2078 70.9009 83.157C70.9517 83.157 70.9924 83.157 71.0433 83.157C71.1145 83.157 71.1857 83.157 71.2569 83.157C71.4298 83.157 71.5925 83.1773 71.7654 83.2078C71.8061 83.2078 71.8366 83.2078 71.8773 83.218C72.0909 83.2587 72.2943 83.3096 72.4977 83.3808C72.5486 83.4011 72.5892 83.4215 72.6401 83.4317C72.7927 83.4825 72.935 83.5538 73.0774 83.625C73.1486 83.6555 73.2097 83.6962 73.2809 83.7369C73.4131 83.8183 73.5453 83.8997 73.6775 84.0014C73.708 84.032 73.7487 84.0421 73.7894 84.0727C73.7894 84.0727 73.7996 84.093 73.8097 84.093C74.0233 84.266 74.2267 84.4695 74.42 84.6933C74.4505 84.734 74.4912 84.7747 74.5217 84.8154C74.5522 84.8561 74.5929 84.8968 74.6234 84.9375C74.9285 85.3546 75.1421 85.8125 75.2845 86.3009C75.315 86.4026 75.3252 86.4942 75.3557 86.5959C75.3862 86.7587 75.4167 86.9113 75.4371 87.0741C75.4472 87.1962 75.4574 87.3183 75.4574 87.4506C75.4574 87.6032 75.4574 87.7456 75.4371 87.8982C75.4269 88.0203 75.4269 88.1323 75.4066 88.2543C75.3659 88.5087 75.3048 88.7529 75.2133 88.9971C75.193 89.0683 75.1523 89.1293 75.1218 89.2006C75.0404 89.3939 74.9489 89.577 74.837 89.7602C74.7963 89.8314 74.7455 89.9026 74.6946 89.9738C74.6437 90.045 74.6031 90.1264 74.542 90.1977C74.481 90.2689 74.42 90.3198 74.359 90.391C74.2979 90.4622 74.2573 90.5334 74.1861 90.6046C74.1352 90.6555 74.0742 90.6962 74.0131 90.7471C73.8911 90.859 73.7691 90.9506 73.6368 91.0523C73.5148 91.1439 73.3927 91.2253 73.2605 91.2965C73.1181 91.3779 72.9757 91.4491 72.8232 91.5102C72.7011 91.561 72.5689 91.6119 72.4367 91.6526C72.2739 91.7035 72.101 91.7442 71.9281 91.7849C71.8163 91.8052 71.6942 91.8256 71.5823 91.8357C71.3891 91.8561 71.1958 91.8663 71.0026 91.8561C70.9517 91.8561 70.8907 91.8663 70.8399 91.8561C69.6499 91.7849 68.5006 92.3241 67.6564 93.1686L66.1918 94.6337C65.3476 95.4782 64.8085 96.6279 64.8797 97.8183C64.8797 97.8692 64.8797 97.9302 64.8797 97.9811C64.8797 98.1744 64.8797 98.3677 64.8594 98.561C64.8492 98.673 64.8289 98.795 64.8085 98.907C64.778 99.0799 64.7373 99.2427 64.6763 99.4157C64.6356 99.548 64.5848 99.67 64.5339 99.7921C64.4729 99.9448 64.4017 100.087 64.3203 100.23C64.2491 100.362 64.1576 100.484 64.0762 100.606C63.9847 100.738 63.883 100.86 63.7711 100.983C63.7203 101.033 63.6898 101.105 63.6287 101.156C63.5677 101.217 63.4863 101.267 63.4151 101.328C63.3439 101.39 63.2931 101.461 63.2219 101.512C63.1507 101.573 63.0693 101.613 62.9981 101.664C62.9269 101.715 62.8557 101.766 62.7845 101.807C62.6015 101.919 62.4184 102.01 62.2252 102.092C62.154 102.122 62.0929 102.153 62.0217 102.183C61.7776 102.265 61.5335 102.336 61.2793 102.376C61.1572 102.397 61.0453 102.397 60.9233 102.407C60.7707 102.417 60.6283 102.427 60.4758 102.427C60.3537 102.427 60.2317 102.417 60.0994 102.407C59.9367 102.387 59.774 102.366 59.6214 102.326C59.5197 102.305 59.418 102.285 59.3265 102.254C58.8383 102.112 58.3806 101.898 57.9636 101.593C57.9229 101.562 57.8822 101.522 57.8415 101.491C57.8008 101.461 57.7602 101.42 57.7195 101.39C57.4957 101.196 57.2923 101.003 57.1194 100.779C57.1194 100.779 57.099 100.769 57.099 100.759C57.0685 100.728 57.0482 100.687 57.0279 100.647C56.9363 100.515 56.8448 100.382 56.7634 100.25C56.7227 100.189 56.6922 100.118 56.6515 100.046C56.5803 99.9041 56.5193 99.7616 56.4583 99.609C56.4379 99.5581 56.4176 99.5174 56.4074 99.4666C56.3362 99.2631 56.2854 99.0596 56.2447 98.8459C56.2447 98.8052 56.2447 98.7747 56.2345 98.734C56.204 98.561 56.1938 98.3982 56.1837 98.2253C56.1837 98.1541 56.1837 98.0828 56.1837 98.0116C56.1837 97.9607 56.1837 97.92 56.1837 97.8692C56.2345 96.6584 55.7362 95.4884 54.8716 94.6235L53.407 93.1584C52.5629 92.3139 51.4136 91.8154 50.2236 91.8459C50.1829 91.8459 50.132 91.8459 50.0913 91.8459C50.071 91.8459 50.0405 91.8459 50.0201 91.8459C49.9489 91.8459 49.8778 91.8459 49.8066 91.8459C49.7964 91.8459 49.776 91.8459 49.7659 91.8459C49.7557 91.8459 49.7354 91.8459 49.7252 91.8459C48.5352 91.7747 47.3859 92.3139 46.5417 93.1584L45.0771 94.6235C44.2329 95.468 43.6939 96.6177 43.7651 97.8081C43.7651 97.859 43.7651 97.92 43.7651 97.9709C43.7651 98.1642 43.7651 98.3575 43.7447 98.5509C43.7346 98.6628 43.7142 98.7849 43.6939 98.8968C43.6634 99.0698 43.6227 99.2325 43.5617 99.4055C43.521 99.5378 43.4701 99.6599 43.4193 99.7921C43.3582 99.9448 43.2871 100.087 43.2057 100.23C43.2057 100.24 43.1853 100.26 43.1752 100.27C50.783 105.622 60.0486 108.776 70.0567 108.776C74.5522 108.776 78.8952 108.125 83.0144 106.945C95.494 115.196 108.767 121.403 119.243 120.507C124.135 120.019 127.939 116.061 128.01 111.116C128.092 102.295 121.653 90.7573 113.405 79.5857L113.395 79.6163ZM29.5361 38.6134C26.7594 34.6352 24.1659 30.5247 21.8164 26.282C13.0797 9.34155 18.2668 5.30231 35.2724 11.702C40.5409 13.8997 45.5958 16.545 50.4778 19.4956C41.6801 23.5552 34.3571 30.2703 29.5259 38.6134H29.5361ZM49.7354 70.7543C47.3249 70.7543 45.3619 68.8009 45.3619 66.3793C45.3619 63.9578 47.3147 62.0043 49.7354 62.0043C52.156 62.0043 54.1088 63.9578 54.1088 66.3793C54.1088 68.8009 52.156 70.7543 49.7354 70.7543ZM81.031 59.2573C78.6205 59.2573 76.6576 57.3038 76.6576 54.8823C76.6576 52.4607 78.6104 50.5073 81.031 50.5073C83.4517 50.5073 85.4045 52.4607 85.4045 54.8823C85.4045 57.3038 83.4517 59.2573 81.031 59.2573ZM105.756 110.282C101.505 107.942 97.3959 105.337 93.4089 102.549C101.769 97.7166 108.492 90.391 112.561 81.5698C115.52 86.4535 118.155 91.5203 120.362 96.7907C126.891 114.077 122.457 118.92 105.756 110.292V110.282Z" fill="url(#paint4_linear_6561_143188)"/>
<path id="Vector_6" d="M45.6366 87.7049C45.6366 87.7049 45.6366 87.6133 45.6366 87.5625C45.6366 87.4912 45.6366 87.42 45.6366 87.3488C45.6366 87.3386 45.6366 87.3285 45.6366 87.3183C45.6366 87.3081 45.6366 87.2878 45.6366 87.2776C45.7078 86.0872 45.1687 84.9375 44.3245 84.093L42.8599 82.6279C42.0157 81.7834 40.8664 81.2442 39.6764 81.3154C39.6663 81.3154 39.6459 81.3154 39.6358 81.3154C39.5035 81.3154 39.3713 81.3256 39.2391 81.3154C38.0288 81.2645 36.8591 81.7631 35.9946 82.6279L34.53 84.093C33.6757 84.9476 33.1671 86.1279 33.218 87.3386C33.218 87.4709 33.218 87.6032 33.218 87.7354C33.218 87.7456 33.218 87.766 33.218 87.7761C33.1468 88.9665 33.6858 90.1163 34.53 90.9607L35.9946 92.4258C36.8388 93.2703 37.9881 93.8096 39.1781 93.7383C39.1882 93.7383 39.2086 93.7383 39.2188 93.7383C39.351 93.7383 39.4832 93.7282 39.6154 93.7383C40.8258 93.7892 41.9954 93.2907 42.8599 92.4258L44.3245 90.9607C45.1789 90.1061 45.6874 88.9258 45.6366 87.7151V87.7049Z" fill="url(#paint5_linear_6561_143188)"/>
</g>
</g>
</g>
<defs>
<linearGradient id="paint0_linear_6561_143188" x1="86.381" y1="-1.78933" x2="10.7945" y2="50.4009" gradientUnits="userSpaceOnUse">
<stop stop-color="#58F3FF"/>
<stop offset="1" stop-color="#4264FE"/>
</linearGradient>
<linearGradient id="paint1_linear_6561_143188" x1="132.75" y1="65.3722" x2="57.1632" y2="117.562" gradientUnits="userSpaceOnUse">
<stop stop-color="#58F3FF"/>
<stop offset="1" stop-color="#4264FE"/>
</linearGradient>
<linearGradient id="paint2_linear_6561_143188" x1="102.705" y1="21.8562" x2="27.1186" y2="74.0464" gradientUnits="userSpaceOnUse">
<stop stop-color="#58F3FF"/>
<stop offset="1" stop-color="#4264FE"/>
</linearGradient>
<linearGradient id="paint3_linear_6561_143188" x1="119.792" y1="46.6002" x2="44.2056" y2="98.7904" gradientUnits="userSpaceOnUse">
<stop stop-color="#58F3FF"/>
<stop offset="1" stop-color="#4264FE"/>
</linearGradient>
<linearGradient id="paint4_linear_6561_143188" x1="110.954" y1="33.8009" x2="35.3671" y2="85.9911" gradientUnits="userSpaceOnUse">
<stop stop-color="#58F3FF"/>
<stop offset="1" stop-color="#4264FE"/>
</linearGradient>
<linearGradient id="paint5_linear_6561_143188" x1="112.957" y1="36.7006" x2="37.3708" y2="88.8908" gradientUnits="userSpaceOnUse">
<stop stop-color="#58F3FF"/>
<stop offset="1" stop-color="#4264FE"/>
</linearGradient>
<clipPath id="clip0_6561_143188">
<rect width="128" height="119" fill="white" transform="translate(0 4)"/>
</clipPath>
</defs>
</svg>
